<svg xmlns="http://www.w3.org/2000/svg" width="36" height="36" viewBox="0 0 36 36">
  <metadata><?xpacket begin="﻿" id="W5M0MpCehiHzreSzNTczkc9d"?>
<x:xmpmeta xmlns:x="adobe:ns:meta/" x:xmptk="Adobe XMP Core 5.6-c142 79.160924, 2017/07/13-01:06:39        ">
   <rdf:RDF xmlns:rdf="http://www.w3.org/1999/02/22-rdf-syntax-ns#">
      <rdf:Description rdf:about=""/>
   </rdf:RDF>
</x:xmpmeta>
                                                                                                    
                                                                                                    
                                                                                                    
                                                                                                    
                                                                                                    
                                                                                                    
                                                                                                    
                                                                                                    
                                                                                                    
                                                                                                    
                                                                                                    
                                                                                                    
                                                                                                    
                                                                                                    
                                                                                                    
                                                                                                    
                                                                                                    
                                                                                                    
                                                                                                    
                                                                                                    
                           
<?xpacket end="w"?></metadata>
<defs>
    <style>
      .cls-1 {
        fill: #fff;
        fill-rule: evenodd;
      }
    </style>
  </defs>
  <path id="dx" class="cls-1" d="M1941.39,280a2.594,2.594,0,0,1-1.83-.748L1925.65,265.6l-13.21,12.97a2.614,2.614,0,0,1-3.66,0,2.536,2.536,0,0,1-.08-3.586l0.09-.089,13.16-12.929-13.11-12.877a2.564,2.564,0,0,1-.04-3.624l0.04-.039a2.634,2.634,0,0,1,3.67,0l13.14,12.908,13.83-13.584a2.64,2.64,0,0,1,3.68,0,2.569,2.569,0,0,1,.04,3.628l-0.03.034-13.82,13.561,13.87,13.622a2.538,2.538,0,0,1,.31,3.3v0.056l-0.31.3A2.594,2.594,0,0,1,1941.39,280Z" transform="translate(-1908 -244)"/>
</svg>
