<svg xmlns="http://www.w3.org/2000/svg" viewBox="0 0 52.91 64.86"><defs><style>.cls-1{fill:#a0a0a0;}</style></defs><title>资源 8</title><g id="图层_2" data-name="图层 2"><g id="图层_1-2" data-name="图层 1"><path class="cls-1" d="M46.26,23.73V19.46A19.64,19.64,0,0,0,26.46,0,19.63,19.63,0,0,0,6.66,19.46v4.27A6.63,6.63,0,0,0,0,30.21V58.38a6.52,6.52,0,0,0,6.66,6.48h39.6a6.63,6.63,0,0,0,6.65-6.48V30.21a6.52,6.52,0,0,0-6.65-6.48Zm-17.58,21v9.22H24.24V44.72A4,4,0,0,1,22,41a4.44,4.44,0,0,1,8.88,0,4.06,4.06,0,0,1-2.22,3.75Zm13.14-21H11.09V19.46a15.37,15.37,0,0,1,30.73,0Z"/></g></g></svg>