<svg xmlns="http://www.w3.org/2000/svg" viewBox="0 0 56.43 62.59"><defs><style>.cls-1{fill:#a0a0a0;}</style></defs><title>资源 9</title><g id="图层_2" data-name="图层 2"><g id="图层_1-2" data-name="图层 1"><path class="cls-1" d="M27.53,32.24A16.32,16.32,0,0,0,44,16.12,16.33,16.33,0,0,0,27.53,0,16.33,16.33,0,0,0,11,16.12,16.33,16.33,0,0,0,27.53,32.24Z"/><path class="cls-1" d="M35.09,35.72H21.33A21.08,21.08,0,0,0,0,56.54v1.34c0,4.7,9.55,4.71,21.33,4.71H35.09c11.78,0,21.34-.17,21.34-4.71V56.54A21.08,21.08,0,0,0,35.09,35.72Z"/></g></g></svg>