<svg xmlns="http://www.w3.org/2000/svg" viewBox="0 0 51.21 56.9"><defs><style>.cls-1{fill:#a0a0a0;}</style></defs><title>资源 10</title><g id="图层_2" data-name="图层 2"><g id="图层_1-2" data-name="图层 1"><path class="cls-1" d="M40.39,56.9H40.1c-6.83-.35-16.06-6.78-24.68-17.2l-3.18-3.84C3.61,25.43-.9,15.25.15,8.62.9,4,7.85,0,11.82,0c2,0,2.67,1,2.91,1.55,2.25,4,5,11,5.05,13.44v.18l-.07.17a5,5,0,0,1-2.58,2.49c-1.29.72-2,1.2-2.11,2.58,0,.42.33,2.32,6,9.33l2.43,2.94c5.71,6.73,7.5,7.46,7.92,7.52,1.38.19,2-.41,3-1.5a5.1,5.1,0,0,1,3-2l.18,0,.18,0c2.48.53,8.84,4.63,12.45,7.67.52.35,1.43,1.37.71,3.64-1.13,3.56-6,8.85-10.54,8.85Z"/></g></g></svg>