<svg xmlns="http://www.w3.org/2000/svg" viewBox="0 0 53.11 62.44"><defs><style>.cls-1{fill:#a0a0a0;}</style></defs><title>资源 7</title><g id="图层_2" data-name="图层 2"><g id="图层_1-2" data-name="图层 1"><path class="cls-1" d="M26.56,0C19.74,5.25,12.49,8.91,0,8.91V32C0,43,14,62.44,26.56,62.44S53.11,43,53.11,32V8.91C40.56,8.91,33.37,5.26,26.56,0Zm18,22.32L25.4,41.45a.26.26,0,0,1-.19.08.27.27,0,0,1-.19-.08L12.49,29.15a.28.28,0,0,1,0-.38L15,26.09a.27.27,0,0,1,.19-.08.28.28,0,0,1,.2.08l9.79,9.81L41.7,19.35a.27.27,0,0,1,.19-.08.26.26,0,0,1,.19.08l2.51,2.59a.28.28,0,0,1,0,.38Z"/></g></g></svg>