<svg xmlns="http://www.w3.org/2000/svg" viewBox="0 0 247.73 247.73"><defs><style>.cls-1{fill:#00a0e9;}</style></defs><title>资源 1</title><g id="图层_2" data-name="图层 2"><g id="图层_1-2" data-name="图层 1"><path class="cls-1" d="M123.86,247.73c68.13,0,123.87-55.74,123.87-123.87S192,0,123.86,0,0,55.74,0,123.86,55.74,247.73,123.86,247.73ZM111.48,78.45V57.8h22.71v20H179.6v9.63H134.19V99.78H172c-1.37,6.88-2.75,13.76-5.5,20-4.82,13.07-9.64,19.26-9.64,19.26l73.63,24.09a74.64,74.64,0,0,1-5.5,13.07,119.42,119.42,0,0,1-7.57,12.39l-70.19-33S134.19,170,120.42,176.16c-13.07,6.2-29.59,11-45.41,6.2-17.21-4.13-28.9-14.46-26.84-35.1,2.06-20,23.4-26.84,41.29-26.84s50.23,11.7,50.23,11.7a105.57,105.57,0,0,0,5.51-13.07A29.9,29.9,0,0,0,148,106H77.07V99.09h33.72V86h-42v-9h42.67ZM130.75,148s-20.65,24.77-45.42,24.77S55.05,161,55.05,152.77s5.51-17.9,26.15-19.27C101.84,131.43,130.75,148,130.75,148Z"/></g></g></svg>