<?xml version="1.0" encoding="utf-8"?>
<!-- Generator: Adobe Illustrator 20.0.0, SVG Export Plug-In . SVG Version: 6.00 Build 0)  -->
<svg version="1.1" id="Layer_1" xmlns="http://www.w3.org/2000/svg" xmlns:xlink="http://www.w3.org/1999/xlink" x="0px" y="0px" fill="#ffffff"
	 viewBox="0 0 1174 382" style="enable-background:new 0 0 1174 382;" xml:space="preserve">
<title>veer.svg</title>
<desc>Created with Sketch.</desc>
<g id="moodboard">
	<g id="veer.svg">
		<path id="Shape" class="st0" d="M860.1,247.5L860.1,247.5c-0.1-1.1-0.2-2.3-0.2-2.9c-0.6-5.1-1.4-8.5-2.6-13.4
			c-12.5-52.4-58.1-91.2-112.4-91.2c-64,0-115.8,53.8-115.8,120.2c0,66.4,51.9,120.2,115.8,120.2c39.5,0,74.4-20.5,95.3-51.8
			l0.4-0.6c3.3-5.2,2-12.1-3.1-15.7c-5-3.5-11.8-2.5-15.6,2.2c-0.1,0.1-0.1,0.2-0.2,0.4l-0.3,0.5c-16.7,25-44.5,41.4-76,41.4
			c-51,0-92.4-42.9-92.4-95.9c0-23.2,7.9-44.5,21.2-61c16.9-21.3,42.6-34.9,71.3-34.9c37.3,0,69.3,22.9,83.9,55.9
			c0,0.1,0.1,0.2,0.1,0.3c0.6,1.4,1.2,2.9,1.8,4.4c0,0.1,0,0.2,0,0.3c1.5,3.9,2.7,7.9,3.7,12.1c0.1,0.5,0.2,1,0.4,1.5
			c-0.3,1.3-1.3,2.3-2.5,2.7c-0.2,0-0.5,0.1-0.7,0.1c-0.1,0-0.1,0-0.2,0c-0.1,0-0.1,0-0.1,0c-3.2,0.5-6.5,0.8-7.1,0.8
			c-0.3,0-4,0.3-4.1,0.3c-3.8,0.3-9.5,0.5-13.4,0.2c-9.4-0.8-11.5-1-20.4-2.6c-2.6-0.5-8.3-1.3-14.1-2c-10.1-1.3-19.2-1.9-28.7-1.9
			c-8.3,0-16.3,0.6-24.1,1.8c-10.8,1.7-21.1,4.4-30.8,8.2c-0.4,0.1-0.9,0.3-1.3,0.4c-0.5,0.2-1,0.4-1.5,0.7
			c-5.3,2.9-7.2,10.8-5.3,15.1c2.3,5.3,7.2,7.2,12.7,6.4c1.3-0.5,2.7-0.9,4-1.3c14.3-4.5,29.8-6.9,46.1-6.9
			c10.2,0,19.1,0.7,28.5,2.4c3.1,0.6,7.1,1.4,10.1,2.2c8.9,1.6,18.2,2.4,27.7,2.4c8.3,0,16.3-0.6,24.1-1.8c1.3-0.2,2.6-0.4,3.9-0.7
			c4.1-0.7,7.3-1.6,11.2-2.7c0.2,0,0.3-0.1,0.4-0.2c0.5-0.1,0.9-0.3,1.2-0.5c2.2-0.7,4.1-2,5.6-3.6c1.8-1.8,3.1-4.2,3.5-6.9
			c0.1-0.8,0.2-1.6,0.2-2.5C860.3,248.7,860.2,248.1,860.1,247.5L860.1,247.5z"/>
		<path id="Shape_1_" class="st0" d="M592.1,247.5L592.1,247.5c-0.1-1.1-0.2-2.3-0.2-2.9c-0.6-5.1-1.4-8.5-2.6-13.4
			c-12.5-52.4-58.1-91.2-112.4-91.2c-64,0-115.8,53.8-115.8,120.2c0,66.4,51.9,120.2,115.8,120.2c39.5,0,74.4-20.5,95.3-51.8
			l0.4-0.6c3.3-5.2,2-12.1-3.1-15.7c-5-3.5-11.8-2.5-15.6,2.2c-0.1,0.1-0.1,0.2-0.2,0.4l-0.3,0.5c-16.7,25-44.5,41.4-76,41.4
			c-51,0-92.4-42.9-92.4-95.9c0-23.2,7.9-44.5,21.2-61c16.9-21.3,42.6-34.9,71.3-34.9c37.3,0,69.3,22.9,83.9,55.9
			c0,0.1,0.1,0.2,0.1,0.3c0.6,1.4,1.2,2.9,1.8,4.4c0,0.1,0,0.2,0,0.3c1.5,3.9,2.7,7.9,3.7,12.1c0.1,0.5,0.2,1,0.4,1.5
			c-0.3,1.3-1.3,2.3-2.5,2.7c-0.2,0-0.5,0.1-0.7,0.1c-0.1,0-0.1,0-0.2,0c-0.1,0-0.1,0-0.1,0c-3.2,0.5-6.5,0.8-7.1,0.8
			c-0.3,0-4,0.3-4.1,0.3c-3.8,0.3-9.5,0.5-13.4,0.2c-9.4-0.8-11.5-1-20.4-2.6c-2.6-0.5-8.3-1.3-14.1-2c-10.1-1.3-19.2-1.9-28.7-1.9
			c-8.3,0-16.3,0.6-24.1,1.8c-10.8,1.7-21.1,4.4-30.8,8.2c-0.4,0.1-0.9,0.3-1.3,0.4c-0.5,0.2-1,0.4-1.5,0.7
			c-5.3,2.9-7.2,10.8-5.3,15.1c2.3,5.3,7.2,7.2,12.7,6.4c1.3-0.5,2.7-0.9,4-1.3c14.3-4.5,29.8-6.9,46.1-6.9
			c10.2,0,19.1,0.7,28.5,2.4c3.1,0.6,7.1,1.4,10.1,2.2c8.9,1.6,18.2,2.4,27.7,2.4c8.3,0,16.3-0.6,24.1-1.8c1.3-0.2,2.6-0.4,3.9-0.7
			c4.1-0.7,7.3-1.6,11.2-2.7c0.2,0,0.3-0.1,0.4-0.2c0.5-0.1,0.9-0.3,1.2-0.5c2.2-0.7,4.1-2,5.6-3.6c1.8-1.8,3.1-4.2,3.5-6.9
			c0.1-0.8,0.2-1.6,0.2-2.5C592.3,248.7,592.2,248.1,592.1,247.5L592.1,247.5z"/>
		<path id="Shape_2_" class="st0" d="M1076.7,235.7h-1.2c0.6-0.2,0.9-0.4,0.9-0.4c36.3-18.2,61.3-55.7,61.3-99.1
			c0-61.2-45.2-110.5-111.2-115.3c-69.9-5-95.6,11.7-108.9,19.4c-1.9,1.2-3.9,2.5-5.9,3.9c-7.3,5.1-12.4,9.7-13.7,20.1v182.9h0
			v122.5h0.2c0.2,6.6,5.6,11.9,12.3,11.9c6.8,0,12.3-5.5,12.3-12.3c0-0.6-0.1-1.2-0.1-1.8V247.2c9.2,0,96.5-0.2,104.3-0.2
			c2.1,0,4.1-0.1,6.2-0.2c11-0.4,19.9-2.6,19.9-2.6c0,0,0,0,0.1,0l54.7,124.4h0c0,0.2,5.5,13,12.3,13c6.8,0,12.3-5.5,12.3-12.3
			c0-1.2-0.2-2.3-0.5-3.4L1076.7,235.7L1076.7,235.7z M922.7,79.6c1-8.2,5-11.7,10.8-15.7c1.6-1.1,3.1-2.1,4.6-3
			c10.6-6,31-19,86.3-15.1c52.3,3.7,88.1,42.2,88.1,89.9c0,33.8-19.8,63.1-48.6,77.3c0,0-15.4,6.4-18.5,6.9c0,0-7.1,1.7-15.8,2
			c-1.6,0.1-3.3,0.1-4.9,0.1c-6.2,0-75.4,0.1-82.7,0.1v0h-19.5V79.6L922.7,79.6z"/>
		<path id="Shape_3_" class="st0" d="M394.8,46.3C387.4,33.4,372.2,26,353.1,26H46.5c-19.1,0-34.3,7.4-41.7,20.3s-6.1,29.8,3.5,46.3
			l153,261.7c9.6,16.5,23.7,25.9,38.7,25.9h0c15,0,29.1-9.5,38.7-25.9L391.4,92.6C401,76.1,402.3,59.2,394.8,46.3L394.8,46.3z
			 M217.1,341.7c-5,8.6-11.3,13.5-17.1,13.5c-5.9,0-12.1-4.9-17.1-13.5L29.9,80c-5-8.6-6.2-16.3-3.4-21.2c2.8-4.9,10.1-7.8,20-7.8
			h63.9l103.9,178.5c10.9,18.7,25.2,30.7,41.5,34.5c2,0.5,4,0.8,6.1,1L217.1,341.7L217.1,341.7z M369.8,80l-91.9,157.6
			c-5.4,2.7-10.8,3.4-16.3,2.1c-9.3-2.2-18.4-10.3-25.7-22.8L139.3,51h213.8c9.9,0,17.2,2.8,20.1,7.8S374.8,71.4,369.8,80L369.8,80z
			"/>
	</g>
</g>
</svg>
